<svg width="32" height="32" viewBox="0 0 32 32" fill="none" xmlns="http://www.w3.org/2000/svg">
<rect width="32" height="32" fill="#1A1A1A"/>
<path d="M9.59598 20.5851C9.50102 20.5851 9.41904 20.5644 9.35005 20.5228C9.28106 20.4805 9.22789 20.4229 9.19056 20.3501C9.15403 20.2764 9.13577 20.1922 9.13577 20.0974C9.13577 20.0042 9.15444 19.9207 9.19177 19.8471C9.22911 19.7734 9.28187 19.7154 9.35005 19.6731C9.41904 19.6308 9.50102 19.6096 9.59598 19.6096C9.67472 19.6096 9.74087 19.621 9.79444 19.6437C9.84801 19.6665 9.89711 19.6966 9.94175 19.7342V19.2829L9.76156 19.2959C9.74695 19.2966 9.73519 19.2923 9.72626 19.2829C9.71814 19.2735 9.71408 19.2629 9.71408 19.2512C9.71408 19.2418 9.71733 19.232 9.72382 19.2218C9.73113 19.2108 9.74411 19.2046 9.76278 19.203L10.0038 19.1783C10.0241 19.1768 10.0383 19.1807 10.0465 19.1901C10.0546 19.1995 10.0586 19.2108 10.0586 19.2242V20.4652L10.2461 20.4523C10.2632 20.4523 10.2753 20.4566 10.2827 20.4652C10.2908 20.4731 10.2948 20.4825 10.2948 20.4935C10.2948 20.5044 10.2908 20.5154 10.2827 20.5264C10.2753 20.5373 10.264 20.5436 10.2486 20.5452L10.0136 20.5687C9.97869 20.5687 9.96002 20.5491 9.95758 20.5099L9.95271 20.4394C9.917 20.4809 9.86789 20.5158 9.80539 20.544C9.7429 20.5714 9.67309 20.5851 9.59598 20.5851ZM9.59842 20.4888C9.6804 20.4888 9.74939 20.4727 9.80539 20.4406C9.8614 20.4077 9.90685 20.3669 9.94175 20.3183V19.8576C9.90361 19.8114 9.85694 19.7746 9.80174 19.7472C9.74655 19.7197 9.6804 19.706 9.60329 19.706C9.52618 19.706 9.46125 19.7244 9.40849 19.7613C9.35654 19.7973 9.31758 19.8451 9.29161 19.9046C9.26564 19.9634 9.25265 20.0277 9.25265 20.0974C9.25265 20.1671 9.26564 20.2318 9.29161 20.2913C9.31839 20.3509 9.35735 20.3987 9.40849 20.4347C9.45962 20.4707 9.52293 20.4888 9.59842 20.4888Z" fill="#F4F4F4"/>
<path d="M10.6796 21C10.6625 21 10.6495 20.9949 10.6406 20.9847C10.6325 20.9745 10.6284 20.9632 10.6284 20.9506C10.6284 20.9389 10.6325 20.9279 10.6406 20.9177C10.6487 20.9083 10.6609 20.9036 10.6771 20.9036H10.7867V19.7331L10.6552 19.7577C10.6512 19.7585 10.6471 19.7593 10.643 19.7601C10.639 19.7609 10.6349 19.7613 10.6309 19.7613C10.6162 19.7613 10.6045 19.757 10.5956 19.7483C10.5874 19.7389 10.5834 19.7284 10.5834 19.7166C10.5834 19.7072 10.5862 19.6978 10.5919 19.6884C10.5984 19.6782 10.6089 19.6715 10.6236 19.6684L10.8232 19.6296C10.8346 19.6281 10.8419 19.6273 10.8451 19.6273C10.8752 19.6273 10.891 19.6426 10.8926 19.6731L10.8963 19.7542C10.9352 19.7158 10.9852 19.6821 11.046 19.6531C11.1077 19.6241 11.1771 19.6096 11.2542 19.6096C11.35 19.6096 11.4316 19.6308 11.4989 19.6731C11.5671 19.7146 11.6191 19.7722 11.6548 19.8459C11.6913 19.9187 11.7096 20.0026 11.7096 20.0974C11.7096 20.1906 11.6909 20.2741 11.6536 20.3477C11.617 20.4214 11.5643 20.4794 11.4953 20.5217C11.4263 20.564 11.3443 20.5851 11.2493 20.5851C11.1706 20.5851 11.1045 20.5738 11.0509 20.551C10.9981 20.5283 10.949 20.4982 10.9036 20.4605V20.9036H11.1666C11.1836 20.9036 11.1962 20.9083 11.2043 20.9177C11.2132 20.9271 11.2177 20.9377 11.2177 20.9495C11.2177 20.962 11.2128 20.9734 11.2031 20.9835C11.1942 20.9945 11.1804 21 11.1617 21H10.6796ZM11.242 20.4888C11.32 20.4888 11.3849 20.4707 11.4368 20.4347C11.4888 20.3979 11.5278 20.3497 11.5537 20.2901C11.5797 20.2306 11.5927 20.1663 11.5927 20.0974C11.5927 20.0269 11.5801 19.9622 11.5549 19.9035C11.5298 19.8439 11.4916 19.7961 11.4405 19.7601C11.3902 19.724 11.3273 19.706 11.2518 19.706C11.1698 19.706 11.1 19.7225 11.0424 19.7554C10.9856 19.7875 10.9393 19.8279 10.9036 19.8764V20.3371C10.9417 20.3834 10.9884 20.4202 11.0436 20.4476C11.0988 20.475 11.1649 20.4888 11.242 20.4888Z" fill="#F4F4F4"/>
<path d="M12.8004 20.7344C12.7858 20.7344 12.7733 20.7277 12.7627 20.7144C12.6759 20.6039 12.6117 20.4813 12.5703 20.3465C12.5298 20.2118 12.5095 20.0613 12.5095 19.8952C12.5095 19.7291 12.5298 19.5787 12.5703 19.4439C12.6117 19.3092 12.6759 19.1866 12.7627 19.0761C12.7733 19.0628 12.7858 19.0561 12.8004 19.0561C12.8151 19.0561 12.828 19.062 12.8394 19.0737C12.8516 19.0855 12.8577 19.0976 12.8577 19.1102C12.8577 19.1164 12.8552 19.1227 12.8504 19.129C12.7741 19.2159 12.7172 19.328 12.6799 19.4651C12.6426 19.6014 12.6239 19.7448 12.6239 19.8952C12.6239 20.0457 12.6426 20.1895 12.6799 20.3266C12.7172 20.4629 12.7741 20.5746 12.8504 20.6615C12.8552 20.667 12.8577 20.6733 12.8577 20.6803C12.8577 20.6929 12.8516 20.705 12.8394 20.7168C12.828 20.7285 12.8151 20.7344 12.8004 20.7344Z" fill="#F4F4F4"/>
<path d="M14.1835 20.584C14.1056 20.584 14.037 20.564 13.9778 20.524C13.9193 20.4841 13.8702 20.4308 13.8304 20.3642C13.7915 20.2968 13.7619 20.2212 13.7416 20.1373C13.7221 20.0527 13.7123 19.9665 13.7123 19.8788C13.7123 19.7903 13.7221 19.7041 13.7416 19.6202C13.7619 19.5356 13.7919 19.4596 13.8317 19.3922C13.8714 19.3241 13.9205 19.27 13.979 19.23C14.0382 19.1901 14.1064 19.1701 14.1835 19.1701C14.2614 19.1701 14.33 19.1901 14.3893 19.23C14.4485 19.27 14.4976 19.3241 14.5366 19.3922C14.5764 19.4596 14.6064 19.5356 14.6267 19.6202C14.647 19.7041 14.6571 19.7903 14.6571 19.8788C14.6571 19.9665 14.647 20.0527 14.6267 20.1373C14.6064 20.2212 14.5764 20.2968 14.5366 20.3642C14.4968 20.4308 14.4473 20.4841 14.3881 20.524C14.3296 20.564 14.2614 20.584 14.1835 20.584ZM14.1835 20.4841C14.2631 20.4841 14.3292 20.4547 14.382 20.3959C14.4347 20.3371 14.4741 20.2619 14.5001 20.1703C14.5269 20.0778 14.5402 19.981 14.5402 19.88C14.5402 19.7781 14.5269 19.6809 14.5001 19.5885C14.4733 19.4953 14.4335 19.4193 14.3808 19.3605C14.328 19.3009 14.2623 19.2712 14.1835 19.2712C14.1048 19.2712 14.039 19.3009 13.9863 19.3605C13.9335 19.4193 13.8942 19.4953 13.8682 19.5885C13.8422 19.6809 13.8292 19.7781 13.8292 19.88C13.8292 19.981 13.8422 20.0778 13.8682 20.1703C13.895 20.2619 13.9343 20.3371 13.9863 20.3959C14.039 20.4547 14.1048 20.4841 14.1835 20.4841Z" fill="#F4F4F4"/>
<path d="M15.2038 20.5651C15.1811 20.5651 15.166 20.5601 15.1587 20.5499C15.1514 20.5397 15.1478 20.5283 15.1478 20.5158C15.1478 20.504 15.151 20.4935 15.1575 20.4841C15.164 20.4739 15.1778 20.4688 15.1989 20.4688H15.3012L15.6336 20.088L15.3292 19.7519H15.222C15.1993 19.7519 15.1843 19.7468 15.177 19.7366C15.1697 19.7264 15.166 19.715 15.166 19.7025C15.166 19.6907 15.1693 19.6802 15.1758 19.6708C15.1823 19.6606 15.1961 19.6555 15.2172 19.6555H15.5057C15.5252 19.6555 15.5378 19.6606 15.5435 19.6708C15.5492 19.6802 15.552 19.6907 15.552 19.7025C15.552 19.715 15.5487 19.7264 15.5423 19.7366C15.5366 19.7468 15.5236 19.7519 15.5033 19.7519H15.4546L15.6981 20.0139L15.927 19.7519H15.8722C15.8495 19.7519 15.8345 19.7468 15.8271 19.7366C15.8198 19.7264 15.8162 19.715 15.8162 19.7025C15.8162 19.6907 15.8194 19.6802 15.8259 19.6708C15.8324 19.6606 15.8462 19.6555 15.8673 19.6555H16.1924C16.2127 19.6555 16.2257 19.6606 16.2314 19.6708C16.237 19.6802 16.2399 19.6907 16.2399 19.7025C16.2399 19.715 16.2366 19.7264 16.2301 19.7366C16.2245 19.7468 16.2111 19.7519 16.19 19.7519H16.0706L15.7699 20.0915L16.1206 20.4688H16.207C16.2273 20.4688 16.2423 20.4739 16.2521 20.4841C16.2618 20.4935 16.2667 20.504 16.2667 20.5158C16.2667 20.5283 16.2614 20.5397 16.2508 20.5499C16.2411 20.5601 16.2257 20.5651 16.2046 20.5651H15.8868C15.8641 20.5651 15.847 20.5601 15.8357 20.5499C15.8243 20.5397 15.8186 20.5283 15.8186 20.5158C15.8186 20.504 15.8239 20.4935 15.8345 20.4841C15.845 20.4739 15.8604 20.4688 15.8807 20.4688H15.9781L15.7042 20.1656L15.4351 20.4688H15.5069C15.5264 20.4688 15.539 20.4739 15.5447 20.4841C15.5504 20.4935 15.5532 20.504 15.5532 20.5158C15.5532 20.5283 15.55 20.5397 15.5435 20.5499C15.5378 20.5601 15.5248 20.5651 15.5045 20.5651H15.2038Z" fill="#F4F4F4"/>
<path d="M17.2382 20.5851C17.0759 20.5851 16.9558 20.5373 16.8778 20.4417C16.8007 20.3462 16.7622 20.2204 16.7622 20.0645C16.7622 19.9156 16.7853 19.7832 16.8316 19.6672C16.8778 19.5505 16.9383 19.4463 17.013 19.3546C17.0877 19.2629 17.1672 19.1803 17.2516 19.1066C17.263 19.0972 17.2743 19.0925 17.2857 19.0925C17.3003 19.0925 17.3133 19.0984 17.3247 19.1102C17.336 19.1211 17.3417 19.1333 17.3417 19.1466C17.3417 19.1568 17.3368 19.1662 17.3271 19.1748C17.2646 19.2249 17.2021 19.2853 17.1396 19.3558C17.0779 19.4263 17.0244 19.5051 16.9789 19.592C16.9334 19.6782 16.9034 19.7711 16.8888 19.8706C16.9359 19.8102 16.9931 19.766 17.0605 19.7378C17.1287 19.7088 17.196 19.6943 17.2626 19.6943C17.3997 19.6943 17.5069 19.7362 17.584 19.82C17.6611 19.9039 17.6997 20.0124 17.6997 20.1456C17.6997 20.2796 17.657 20.3865 17.5718 20.4664C17.4874 20.5456 17.3762 20.5851 17.2382 20.5851ZM17.2382 20.4888C17.3129 20.4888 17.3758 20.4731 17.4269 20.4417C17.4781 20.4104 17.5166 20.3689 17.5426 20.3172C17.5694 20.2655 17.5828 20.2094 17.5828 20.1491C17.5828 20.088 17.5718 20.03 17.5499 19.9752C17.5288 19.9203 17.4947 19.876 17.4476 19.8424C17.4014 19.8079 17.3409 19.7906 17.2662 19.7906C17.1859 19.7906 17.1165 19.8071 17.058 19.84C17.0004 19.8721 16.9562 19.9144 16.9253 19.9669C16.8945 20.0194 16.8791 20.0762 16.8791 20.1373C16.8791 20.1985 16.8912 20.2561 16.9156 20.3101C16.9399 20.3634 16.9785 20.4065 17.0313 20.4394C17.084 20.4723 17.153 20.4888 17.2382 20.4888Z" fill="#F4F4F4"/>
<path d="M18.6639 20.5851C18.6079 20.5851 18.5552 20.5777 18.5056 20.5628C18.4561 20.5479 18.4119 20.5275 18.3729 20.5017C18.351 20.4868 18.3401 20.4696 18.3401 20.45C18.3401 20.4367 18.3449 20.4257 18.3547 20.4171C18.3644 20.4077 18.3758 20.403 18.3888 20.403C18.3993 20.403 18.4091 20.4061 18.418 20.4124C18.4586 20.4414 18.502 20.4613 18.5483 20.4723C18.5953 20.4833 18.6392 20.4888 18.6797 20.4888C18.7398 20.4888 18.7999 20.475 18.8599 20.4476C18.9208 20.4202 18.9715 20.3791 19.0121 20.3242C19.0527 20.2686 19.073 20.1996 19.073 20.1174C19.073 20.0398 19.0592 19.9771 19.0316 19.9293C19.004 19.8815 18.9683 19.8471 18.9245 19.8259C18.8806 19.804 18.8344 19.793 18.7857 19.793C18.724 19.793 18.6643 19.8083 18.6067 19.8388C18.5499 19.8686 18.5085 19.9082 18.4825 19.9575C18.4768 19.9748 18.4626 19.9834 18.4399 19.9834C18.4293 19.9834 18.4192 19.9803 18.4095 19.974C18.3997 19.9669 18.3949 19.9567 18.3949 19.9434L18.4192 19.2594C18.4192 19.2249 18.4367 19.2046 18.4716 19.1983C18.5073 19.192 18.545 19.1889 18.5848 19.1889H18.9793C18.9906 19.1474 18.9999 19.1196 19.0073 19.1055C19.0154 19.0914 19.0267 19.0843 19.0413 19.0843C19.056 19.0843 19.0685 19.0874 19.0791 19.0937C19.0904 19.1 19.0961 19.1098 19.0961 19.1231C19.0961 19.1685 19.088 19.2069 19.0718 19.2383C19.0555 19.2696 19.0324 19.2853 19.0024 19.2853H18.5519C18.5454 19.2853 18.5422 19.2884 18.5422 19.2947L18.4996 19.8106C18.5466 19.773 18.5953 19.7456 18.6457 19.7284C18.6968 19.7103 18.7467 19.7013 18.7954 19.7013C18.866 19.7013 18.9314 19.7178 18.9914 19.7507C19.0515 19.7836 19.0994 19.8302 19.1351 19.8905C19.1716 19.9501 19.1899 20.0198 19.1899 20.0997C19.1899 20.1985 19.1663 20.2843 19.1193 20.3571C19.0722 20.43 19.0089 20.4864 18.9293 20.5264C18.8498 20.5655 18.7613 20.5851 18.6639 20.5851Z" fill="#F4F4F4"/>
<path d="M20.2223 20.5734C20.2069 20.5734 20.1927 20.5679 20.1797 20.5569C20.1675 20.546 20.1614 20.5303 20.1614 20.5099C20.1614 20.3422 20.1785 20.1875 20.2126 20.0457C20.2475 19.9031 20.2921 19.7699 20.3465 19.6461C20.4017 19.5215 20.4597 19.4028 20.5206 19.29H19.9192V19.4886C19.9192 19.509 19.9127 19.5246 19.8997 19.5356C19.8875 19.5458 19.8741 19.5509 19.8595 19.5509C19.8449 19.5509 19.8315 19.5458 19.8193 19.5356C19.808 19.5254 19.8023 19.5098 19.8023 19.4886V19.2524C19.8023 19.2101 19.825 19.1889 19.8705 19.1889H20.5985C20.6139 19.1889 20.6265 19.1963 20.6363 19.2112C20.646 19.2253 20.6509 19.2414 20.6509 19.2594C20.6509 19.2727 20.648 19.2845 20.6424 19.2947C20.575 19.42 20.5137 19.5438 20.4585 19.6661C20.4033 19.7883 20.3595 19.918 20.327 20.0551C20.2946 20.1914 20.2783 20.3434 20.2783 20.5111C20.2783 20.5322 20.2722 20.5479 20.2601 20.5581C20.2487 20.5683 20.2361 20.5734 20.2223 20.5734Z" fill="#F4F4F4"/>
<path d="M21.7673 20.5851C21.605 20.5851 21.4849 20.5373 21.4069 20.4417C21.3298 20.3462 21.2913 20.2204 21.2913 20.0645C21.2913 19.9156 21.3144 19.7832 21.3607 19.6672C21.4069 19.5505 21.4674 19.4463 21.5421 19.3546C21.6168 19.2629 21.6963 19.1803 21.7807 19.1066C21.7921 19.0972 21.8034 19.0925 21.8148 19.0925C21.8294 19.0925 21.8424 19.0984 21.8538 19.1102C21.8651 19.1211 21.8708 19.1333 21.8708 19.1466C21.8708 19.1568 21.8659 19.1662 21.8562 19.1748C21.7937 19.2249 21.7312 19.2853 21.6687 19.3558C21.607 19.4263 21.5535 19.5051 21.508 19.592C21.4625 19.6782 21.4325 19.7711 21.4179 19.8706C21.465 19.8102 21.5222 19.766 21.5896 19.7378C21.6577 19.7088 21.7251 19.6943 21.7917 19.6943C21.9288 19.6943 22.036 19.7362 22.1131 19.82C22.1902 19.9039 22.2288 20.0124 22.2288 20.1456C22.2288 20.2796 22.1861 20.3865 22.1009 20.4664C22.0165 20.5456 21.9053 20.5851 21.7673 20.5851ZM21.7673 20.4888C21.842 20.4888 21.9049 20.4731 21.956 20.4417C22.0072 20.4104 22.0457 20.3689 22.0717 20.3172C22.0985 20.2655 22.1119 20.2094 22.1119 20.1491C22.1119 20.088 22.1009 20.03 22.079 19.9752C22.0579 19.9203 22.0238 19.876 21.9767 19.8424C21.9305 19.8079 21.87 19.7906 21.7953 19.7906C21.715 19.7906 21.6456 19.8071 21.5871 19.84C21.5295 19.8721 21.4853 19.9144 21.4544 19.9669C21.4236 20.0194 21.4082 20.0762 21.4082 20.1373C21.4082 20.1985 21.4203 20.2561 21.4447 20.3101C21.469 20.3634 21.5076 20.4065 21.5604 20.4394C21.6131 20.4723 21.6821 20.4888 21.7673 20.4888Z" fill="#F4F4F4"/>
<path d="M23.1346 20.7344C23.12 20.7344 23.1066 20.7285 23.0944 20.7168C23.083 20.705 23.0774 20.6929 23.0774 20.6803C23.0774 20.6733 23.0798 20.667 23.0847 20.6615C23.1618 20.5746 23.2186 20.4629 23.2551 20.3266C23.2924 20.1895 23.3111 20.0457 23.3111 19.8952C23.3111 19.7448 23.2924 19.6014 23.2551 19.4651C23.2186 19.328 23.1618 19.2159 23.0847 19.129C23.0798 19.1227 23.0774 19.1164 23.0774 19.1102C23.0774 19.0976 23.083 19.0855 23.0944 19.0737C23.1066 19.062 23.12 19.0561 23.1346 19.0561C23.1492 19.0561 23.1618 19.0628 23.1723 19.0761C23.2592 19.1866 23.3229 19.3092 23.3635 19.4439C23.4049 19.5787 23.4256 19.7291 23.4256 19.8952C23.4256 20.0613 23.4049 20.2118 23.3635 20.3465C23.3229 20.4813 23.2592 20.6039 23.1723 20.7144C23.1618 20.7277 23.1492 20.7344 23.1346 20.7344Z" fill="#F4F4F4"/>
<path d="M4.18954 16.7824C4.1276 16.7824 4.08052 16.7669 4.04831 16.7358C4.0161 16.7023 4 16.6664 4 16.6281C4 16.5899 4.01487 16.5552 4.0446 16.5241C4.07681 16.4906 4.12388 16.4739 4.18582 16.4739H4.79161V12.8899H4.20069C4.14123 12.8899 4.09663 12.8743 4.0669 12.8432C4.03716 12.8121 4.0223 12.7774 4.0223 12.7392C4.0223 12.6985 4.03716 12.6626 4.0669 12.6316C4.09911 12.5981 4.14618 12.5813 4.20812 12.5813H5.53863C5.96478 12.5813 6.3352 12.6555 6.64986 12.8038C6.967 12.9497 7.21353 13.1757 7.38944 13.4818C7.56535 13.788 7.65331 14.1814 7.65331 14.6621C7.65331 15.4203 7.46749 15.9632 7.09584 16.2909C6.72419 16.6186 6.20264 16.7824 5.53119 16.7824H4.18954ZM5.1484 16.4739H5.55721C6.17167 16.4739 6.61517 16.322 6.88771 16.0182C7.16026 15.7145 7.29653 15.2625 7.29653 14.6621C7.29653 14.0953 7.15158 13.6588 6.8617 13.3527C6.57181 13.0441 6.15433 12.8899 5.60924 12.8899H5.1484V16.4739Z" fill="#F4F4F4"/>
<path d="M9.79118 16.8434C9.46166 16.8434 9.16929 16.7836 8.91409 16.664C8.66137 16.542 8.46316 16.3674 8.31945 16.1402C8.17823 15.913 8.10761 15.6404 8.10761 15.3223C8.10761 15.0161 8.18194 14.7542 8.3306 14.5366C8.48174 14.3189 8.68119 14.1527 8.92896 14.0379C9.1792 13.9231 9.45298 13.8657 9.7503 13.8657C10.1343 13.8657 10.4527 13.9673 10.7054 14.1706C10.9606 14.3739 11.0882 14.6717 11.0882 15.0639C11.0882 15.1524 11.0622 15.2266 11.0102 15.2864C10.9582 15.3462 10.8888 15.3761 10.8021 15.3761H8.4644C8.47679 15.7659 8.60439 16.0589 8.8472 16.255C9.09001 16.4512 9.39476 16.5492 9.76145 16.5492C9.94232 16.5492 10.1232 16.5169 10.3041 16.4523C10.4849 16.3878 10.6472 16.2897 10.7909 16.1582C10.843 16.1175 10.8937 16.0972 10.9433 16.0972C10.9879 16.0972 11.0238 16.1127 11.0511 16.1438C11.0783 16.1749 11.092 16.212 11.092 16.255C11.092 16.3076 11.0697 16.3579 11.0251 16.4057C10.9334 16.5014 10.8157 16.5815 10.672 16.6461C10.5283 16.7107 10.3772 16.7597 10.2186 16.7932C10.0625 16.8267 9.92002 16.8434 9.79118 16.8434ZM8.47555 15.1142H10.7723C10.7674 15.0257 10.7525 14.9276 10.7277 14.82C10.703 14.71 10.6559 14.6047 10.5865 14.5043C10.5196 14.4038 10.4193 14.3213 10.2855 14.2567C10.1542 14.1922 9.97825 14.1599 9.75774 14.1599C9.396 14.1599 9.10239 14.2424 8.87693 14.4074C8.65394 14.5724 8.52014 14.808 8.47555 15.1142Z" fill="#F4F4F4"/>
<path d="M13.4194 16.8326C13.3698 16.8326 13.3215 16.8183 13.2744 16.7896C13.2298 16.7633 13.179 16.6903 13.1221 16.5707L12.0294 14.2998H11.654C11.5921 14.2998 11.55 14.2842 11.5277 14.2531C11.5079 14.2221 11.4979 14.1886 11.4979 14.1527C11.4979 14.1144 11.5091 14.0809 11.5314 14.0522C11.5537 14.0212 11.5995 14.0056 11.6689 14.0056H12.8396C12.9015 14.0056 12.9412 14.0212 12.9585 14.0522C12.9759 14.0833 12.9845 14.118 12.9845 14.1563C12.9845 14.1922 12.9759 14.2256 12.9585 14.2567C12.9412 14.2854 12.9028 14.2998 12.8433 14.2998H12.4382L13.4305 16.4523L14.3373 14.2998H14.0214C13.9595 14.2998 13.9199 14.2854 13.9025 14.2567C13.8852 14.2256 13.8765 14.1922 13.8765 14.1563C13.8765 14.118 13.8852 14.0833 13.9025 14.0522C13.9223 14.0212 13.9632 14.0056 14.0252 14.0056H14.9952C15.067 14.0056 15.1129 14.0212 15.1327 14.0522C15.155 14.0809 15.1661 14.1144 15.1661 14.1527C15.1661 14.1886 15.1562 14.2221 15.1364 14.2531C15.1166 14.2842 15.0744 14.2998 15.01 14.2998H14.6793L13.687 16.5887C13.6399 16.6987 13.5953 16.7669 13.5532 16.7932C13.5135 16.8195 13.4689 16.8326 13.4194 16.8326Z" fill="#F4F4F4"/>
<path d="M18.6181 11H21.0613V11.4482H21.5256V11.9037H21.9975V13.7994H21.5256V14.2549H21.0613V14.7104H19.1813V16.9881H18.6181V11ZM20.9776 14.1741V13.7185H21.4495V11.9846H20.9776V11.529H19.1813V14.1741H20.9776Z" fill="#F4F4F4"/>
<path d="M22.5988 16.0697H22.1193V13.7185H22.5988V13.2703H23.0707V12.8148H24.5626V13.2703H25.0269V13.7185H25.4988V15.166H22.6826V15.9962H23.1469V16.4444H24.4788V15.9962H24.9507V15.5407H25.4988V16.0697H25.0269V16.5252H24.5626V16.9881H23.0707V16.5252H22.5988V16.0697ZM24.9507 14.6296V13.7994H24.4788V13.3438H23.1469V13.7994H22.6826V14.6296H24.9507Z" fill="#F4F4F4"/>
<path d="M26.572 15.166H26.1001V14.2549H25.6206V12.8148H26.1838V14.1741H26.6481V15.0852H27.12V15.9962H27.5082V15.0852H27.9801V14.1741H28.452V12.8148H29V14.2549H28.5281V15.166H28.0638V16.0697H27.5919V16.9881H27.0363V16.0697H26.572V15.166Z" fill="#F4F4F4"/>
</svg>
